<svg width="24" height="24" viewBox="0 0 24 24" fill="none" xmlns="http://www.w3.org/2000/svg">
<g clip-path="url(#clip0)">
<path d="M20.7691 13.2848C20.8196 12.9067 20.8448 12.5159 20.8448 12.1C20.8448 11.6967 20.8196 11.2933 20.7565 10.9152L23.3152 8.92375C23.5421 8.74729 23.6051 8.40698 23.4664 8.1549L21.0464 3.97031C20.8952 3.69302 20.5801 3.60479 20.3028 3.69302L17.2904 4.90302C16.6602 4.42406 15.9922 4.02073 15.2485 3.71823L14.7948 0.516771C14.7444 0.214271 14.4923 0 14.1898 0H9.34977C9.04727 0 8.80779 0.214271 8.75737 0.516771L8.30362 3.71823C7.55998 4.02073 6.87935 4.43667 6.26175 4.90302L3.24935 3.69302C2.97206 3.59219 2.65696 3.69302 2.50571 3.97031L0.0983129 8.1549C-0.0529371 8.41958 -0.00252054 8.74729 0.249563 8.92375L2.80821 10.9152C2.74519 11.2933 2.69477 11.7093 2.69477 12.1C2.69477 12.4907 2.71998 12.9067 2.783 13.2848L0.224354 15.2763C-0.00252052 15.4527 -0.0655412 15.793 0.0731046 16.0451L2.4931 20.2297C2.64435 20.507 2.95946 20.5952 3.23675 20.507L6.24914 19.297C6.87935 19.7759 7.54737 20.1793 8.29102 20.4818L8.74477 23.6832C8.80779 23.9857 9.04727 24.2 9.34977 24.2H14.1898C14.4923 24.2 14.7444 23.9857 14.7822 23.6832L15.2359 20.4818C15.9796 20.1793 16.6602 19.7759 17.2778 19.297L20.2902 20.507C20.5675 20.6078 20.8826 20.507 21.0338 20.2297L23.4538 16.0451C23.6051 15.7678 23.5421 15.4527 23.3026 15.2763L20.7691 13.2848ZM11.7698 16.6375C9.27414 16.6375 7.23227 14.5956 7.23227 12.1C7.23227 9.60438 9.27414 7.5625 11.7698 7.5625C14.2654 7.5625 16.3073 9.60438 16.3073 12.1C16.3073 14.5956 14.2654 16.6375 11.7698 16.6375Z" fill="white"/>
</g>
<defs>
<clipPath id="clip0">
<rect width="24" height="24" fill="white"/>
</clipPath>
</defs>
</svg>
